<svg width="107" height="12" viewBox="0 0 107 12" fill="none" xmlns="http://www.w3.org/2000/svg">
<g clip-path="url(#clip0_496_47708)">
<path d="M5.28009 7.06345H1.65783V11.9973H0V0H5.85531C9.07057 0 9.96867 1.82615 9.96867 3.53308C9.96867 4.86882 9.24151 6.40506 7.10885 6.84669L10.3919 12H8.44651L5.2828 7.06615L5.28009 7.06345ZM1.65783 5.69519H5.61925C7.59996 5.69519 8.22673 4.64665 8.22673 3.51411C8.22673 2.38158 7.59996 1.38451 5.63824 1.38451H1.65783V5.69519Z" fill="#5B5B5B"/>
<path d="M30.2112 0H32.664L36.5386 9.296C36.7258 9.77015 36.8099 9.97065 36.8778 10.3445H36.9103C36.9944 9.97336 37.0785 9.77015 37.2495 9.296L41.1783 0H43.6502V11.9973H42.128V2.62C42.128 2.16482 42.128 1.70693 42.1796 1.40348H42.1117C42.0439 1.60668 41.8757 2.21359 41.6884 2.62L37.6945 12H36.0855L32.1078 2.60375C31.9558 2.24881 31.8039 1.65816 31.7523 1.40348H31.6682C31.7008 1.70693 31.7361 2.09709 31.7361 2.62V11.9973H30.2139V0H30.2112Z" fill="#5B5B5B"/>
<path d="M55.3379 8.88959H48.8558L47.5182 12H45.7762L51.2598 0H52.9339L58.4175 12H56.6566L55.3352 8.88959H55.3379ZM54.7464 7.50508L52.9529 3.31361C52.5459 2.55227 52.3099 2.09709 52.1064 1.45496H52.0738C51.8703 2.09709 51.6505 2.55227 51.2436 3.31361L49.4501 7.50508H54.7464Z" fill="#5B5B5B"/>
<path d="M58.9657 8.23609L60.5839 7.96421C60.9692 9.59552 62.2022 10.701 64.6064 10.701C66.4815 10.701 67.7633 10.1419 67.7633 8.71831C67.7633 7.43839 66.9311 6.95874 65.2794 6.71764L62.7801 6.38163C60.7458 6.0764 59.5282 5.18122 59.5282 3.26263C59.5282 1.24657 61.2595 0 64.1903 0C67.1211 0 68.837 1.07215 69.3327 3.32676L67.7633 3.7115C67.3626 2.11096 66.2735 1.26453 64.1415 1.26453C62.2818 1.26453 61.1465 1.93655 61.1465 3.13695C61.1465 4.25784 61.7861 4.78365 63.4043 5.02476L65.8394 5.37616C68.0818 5.71217 69.397 6.56117 69.397 8.57467C69.397 10.5882 67.8275 11.9989 64.5756 11.9989C61.3237 11.9989 59.4332 10.5753 58.9683 8.23866L58.9657 8.23609Z" fill="#5B5B5B"/>
<path d="M81.2239 1.40077H76.6385V11.9973H74.9806V1.40077H70.3951V0H81.2266V1.40077H81.2239Z" fill="#5B5B5B"/>
<path d="M92.4122 10.6128V11.9973H83.2059V0H92.2955V1.38451H84.8665V5.15331H92.0079V6.53782H84.8665V10.6101H92.4149L92.4122 10.6128Z" fill="#5B5B5B"/>
<path d="M100.717 7.06345H97.0952V11.9973H95.4374V0H101.293C104.508 0 105.406 1.82615 105.406 3.53308C105.406 4.86882 104.679 6.40506 102.546 6.84669L105.829 12H103.884L100.72 7.06615L100.717 7.06345ZM97.0952 5.69519H101.057C103.037 5.69519 103.664 4.64665 103.664 3.51411C103.664 2.38158 103.037 1.38451 101.076 1.38451H97.0979V5.69519H97.0952Z" fill="#5B5B5B"/>
<path d="M27.3552 0H12.9612V1.40077H27.3552V0Z" fill="#5B5B5B"/>
<path d="M27.3552 10.5996H12.9612V12.0004H27.3552V10.5996Z" fill="#5B5B5B"/>
<path d="M27.3552 5.29883H12.9612V6.6996H27.3552V5.29883Z" fill="#5B5B5B"/>
</g>
<defs>
<clipPath id="clip0_496_47708">
<rect width="106.5" height="12" fill="white"/>
</clipPath>
</defs>
</svg>
